<svg xmlns="http://www.w3.org/2000/svg" fill="none" viewBox="0 0 283 64"><path fill="#000" d="M141.04 16c-11.04 0-19 7.2-19 18s8.96 18 20 18c6.67 0 12.55-2.64 16.19-7.09l-7.65-4.42c-2.02 2.21-5.09 3.5-8.54 3.5-4.79 0-8.86-2.5-10.37-6.5h28.02c.22-1.12.35-2.28.35-3.5 0-10.79-7.96-17.99-19-17.99zm-9.46 14.5c1.25-3.99 4.67-6.5 9.45-6.5 4.79 0 8.21 2.51 9.45 6.5h-18.9zm117.14 14.5c0 11.03-8.97 20-20 20-4.89 0-9.39-1.76-12.86-4.68l-7.65 4.42c4.98 5.5 12.13 8.96 20.51 8.96 15.16 0 27.5-12.34 27.5-27.5S251.66 0 236.5 0c-8.38 0-15.53 3.46-20.51 8.96l7.65 4.42c3.47-2.92 7.97-4.68 12.86-4.68 11.03 0 20 8.97 20 20zm-40 0c0-11.03-8.97-20-20-20s-20 8.97-20 20 8.97 20 20 20 20-8.97 20-20zm-60-20c-11.04 0-19 7.2-19 18s8.96 18 20 18c6.67 0 12.55-2.64 16.19-7.09l-7.65-4.42c-2.02 2.21-5.09 3.5-8.54 3.5-4.79 0-8.86-2.5-10.37-6.5h28.02c.22-1.12.35-2.28.35-3.5 0-10.79-7.96-17.99-19-17.99zm-9.45 14.5c1.25-3.99 4.67-6.5 9.45-6.5 4.79 0 8.21 2.51 9.45 6.5h-18.9zM0 64h16v-8H8V40H0v24zm0-32h8v-8H0v8zm32 32h16v-8H40V8H24v56z"/></svg>
